<svg width="20" height="20" viewBox="0 0 20 20" fill="none" xmlns="http://www.w3.org/2000/svg">
<path d="M3.71091 0C2.72789 0.00383059 1.78623 0.39603 1.09113 1.09113C0.39603 1.78623 0.00383059 2.72789 0 3.71091V16.2891C0.00383059 17.2721 0.39603 18.2138 1.09113 18.9089C1.78623 19.604 2.72789 19.9962 3.71091 20H16.2891C17.2721 19.9962 18.2138 19.604 18.9089 18.9089C19.604 18.2138 19.9962 17.2721 20 16.2891V3.71091C19.9962 2.72789 19.604 1.78623 18.9089 1.09113C18.2138 0.39603 17.2721 0.00383059 16.2891 0H3.71091ZM3.71091 1.81818H16.2891C17.3436 1.81818 18.1818 2.65636 18.1818 3.71091V16.2891C18.1818 17.3436 17.3436 18.1818 16.2891 18.1818H3.71091C3.46191 18.1834 3.21509 18.1355 2.98474 18.0409C2.7544 17.9464 2.54512 17.807 2.36905 17.631C2.19298 17.4549 2.05362 17.2456 1.95906 17.0153C1.8645 16.7849 1.81661 16.5381 1.81818 16.2891V3.71091C1.81818 2.65636 2.65636 1.81818 3.71091 1.81818ZM9.74455 6.57273C9.07636 6.56636 8.50818 6.57273 8.18909 6.72909C7.97546 6.83273 7.81273 7.06636 7.91182 7.07727C8.03636 7.09545 8.31636 7.15545 8.46636 7.35818C8.65727 7.61727 8.65091 8.20364 8.65091 8.20364C8.65091 8.20364 8.75727 9.81546 8.39091 10.0182C8.13909 10.1564 7.79455 9.87545 7.04909 8.59364C6.66909 7.93364 6.38182 7.20545 6.38182 7.20545C6.38182 7.20545 6.32727 7.07 6.22909 6.99909C6.10818 6.91091 5.94091 6.88182 5.94091 6.88182L4.16182 6.89273C4.16182 6.89273 3.89545 6.90364 3.8 7.01727C3.71091 7.12364 3.79273 7.33273 3.79273 7.33273C3.79273 7.33273 5.18455 10.5891 6.76091 12.23C8.20636 13.7364 9.84727 13.6364 9.84727 13.6364H10.5927C10.5927 13.6364 10.8164 13.6118 10.93 13.4909C11.0373 13.3773 11.0336 13.1636 11.0336 13.1636C11.0336 13.1636 11.0191 12.1664 11.4809 12.0173C11.9391 11.8745 12.5209 12.9827 13.1427 13.4091C13.6155 13.7318 13.9736 13.6609 13.9736 13.6609L15.6364 13.6364C15.6364 13.6364 16.5027 13.5827 16.0909 12.8973C16.0591 12.8445 15.8527 12.3936 14.8591 11.47C13.8145 10.5045 13.9536 10.6609 15.21 8.98818C15.9736 7.96909 16.2791 7.34727 16.1827 7.07727C16.0918 6.82545 15.53 6.89273 15.53 6.89273L13.6582 6.90364C13.6582 6.90364 13.52 6.88545 13.4173 6.94636C13.3466 6.99882 13.2904 7.06823 13.2536 7.14818C13.2536 7.14818 12.9555 7.93636 12.5609 8.60818C11.73 10.0209 11.3927 10.0991 11.2582 10.0109C10.9418 9.80455 11.02 9.18636 11.02 8.75C11.02 7.37545 11.2291 6.80727 10.6155 6.65909C10.4127 6.60909 10.2636 6.57727 9.74545 6.57273H9.74455Z" fill="white"/>
</svg>
